<svg xmlns="http://www.w3.org/2000/svg" viewBox="0 0 138 138" id="writer"><path fill="#f9cfcf" d="M93.1 86.5c-2.9-4.3-7.3-5.3-8.3-5.5l-16.9-3.2-6.9-1.3V55.1H39.4v21.5l-6.9 1.3-5.2 1v53.6h68V93.7c0-1.2-.2-4.2-2.2-7.2z"></path><path d="M95.3 133.5H5c-.6 0-1-.4-1-1V93.7C4 87 8.8 81.3 15.3 80l23-4.3V55.1c0-.6.4-1 1-1h21.5c.6 0 1 .4 1 1v20.7l23 4.3c1.7.4 6.1 1.6 9 5.9 1.9 2.9 2.4 5.8 2.4 7.8v38.7c.1.5-.4 1-.9 1zm-89.3-2h88.2V93.7c0-1.7-.4-4.2-2-6.6-2.5-3.6-6.2-4.7-7.7-5.1l-23.8-4.5c-.5-.1-.8-.5-.8-1V56.1H40.4v20.5c0 .5-.3.9-.8 1l-23.9 4.5C10.1 83.1 6 88 6 93.7v37.8z"></path><path fill="#66ffc8" d="M86.3 81.4c-.4-.1-.9-.2-1.3-.3h-.2l-23.9-4.5-6.4 8.6-4.3 15-4.3-15-6.4-8.6-15.6 2.9v52.9h71.5V93.7c-.1-5.6-3.8-10.6-9.1-12.3z"></path><path d="M95.3 133.5H5c-.6 0-1-.4-1-1V93.7C4 87 8.8 81.3 15.3 80l23.9-4.5c.4-.1.8.1 1 .4l6.4 8.6c.1.1.1.2.2.3l3.3 11.7 3.3-11.7c0-.1.1-.2.2-.3l6.4-8.6c.2-.3.6-.5 1-.4L84.9 80c.1 0 .2 0 .3.1.4.1.9.2 1.4.4 5.8 1.8 9.7 7.2 9.7 13.2v38.7c0 .6-.5 1.1-1 1.1zm-89.3-2h88.2V93.7c0-5.2-3.3-9.8-8.3-11.3l-1.2-.3h-.2l-23.3-4.4-6 7.9-4.2 14.9c-.1.4-.5.7-1 .7s-.8-.3-1-.7l-4.2-14.9-6-7.9-23.3 4.4C10.1 83.1 6 88 6 93.7v37.8z"></path><path fill="#ff484a" d="m45.8 85.2-10.7 8.6-2.6-15.9 6.9-1.3 6.4 8.6z"></path><path d="M35.1 94.8c-.1 0-.2 0-.4-.1-.3-.1-.6-.4-.6-.8L31.5 78c-.1-.5.3-1 .8-1.1l6.9-1.3c.4-.1.8.1 1 .4l6.4 8.6c.3.4.2 1-.2 1.4l-10.7 8.6c-.1.1-.4.2-.6.2zm-1.5-16.1 2.2 13.2 8.7-6.9-5.5-7.3-5.4 1z"></path><path fill="#f9cfcf" d="M69.5 29.3v17.2c0 10.7-8.7 19.3-19.3 19.3s-19.3-8.7-19.3-19.3V29.3c0-10.7 8.7-19.3 19.3-19.3 3.1 0 6.1.7 8.8 2.1 6.4 3.3 10.5 10 10.5 17.2z"></path><path d="M50.1 66.9c-11.2 0-20.3-9.1-20.3-20.3V29.3c0-5.4 2.1-10.5 6-14.4 3.8-3.8 8.9-6 14.4-6 3.2 0 6.4.8 9.2 2.2 6.8 3.5 11 10.4 11 18.1v17.2c.1 11.3-9 20.5-20.3 20.5zm.1-55.9c-4.9 0-9.5 1.9-13 5.4-3.5 3.5-5.4 8.1-5.4 13v17.2c0 10.1 8.2 18.3 18.3 18.3 10.1 0 18.3-8.2 18.3-18.3V29.3c0-6.9-3.8-13.2-10-16.3-2.5-1.3-5.4-2-8.2-2z"></path><path fill="#f9cfcf" d="M71.6 31.5h-2.1v12.9h2.1c3.6 0 6.4-2.9 6.4-6.4s-2.8-6.5-6.4-6.5z"></path><path d="M71.6 45.4h-2.1c-.6 0-1-.4-1-1V31.5c0-.6.4-1 1-1h2.1c4.1 0 7.4 3.3 7.4 7.4s-3.3 7.5-7.4 7.5zm-1.1-2h1.1c3 0 5.4-2.4 5.4-5.4s-2.4-5.4-5.4-5.4h-1.1v10.8z"></path><path fill="#f9cfcf" d="M28.8 31.5h-.1c-3.6 0-6.4 2.9-6.4 6.4s2.9 6.4 6.4 6.4H31l-.1-12.9h-2.1z"></path><path d="M30.9 45.4h-2.3c-4.1 0-7.4-3.3-7.4-7.4s3.3-7.4 7.4-7.4h2.1c.5 0 1 .4 1 1l.1 12.9c0 .3-.1.5-.3.7 0 .1-.3.2-.6.2zm-2.2-12.9c-3 0-5.4 2.4-5.4 5.4s2.4 5.4 5.4 5.4H30l-.1-10.9h-1.2z"></path><path fill="#ff484a" d="M61.5 31h.5c4.2 0 7.5 3.4 7.5 7.5 0 4.2-3.4 7.5-7.5 7.5h-.5c-4.2 0-7.5-3.4-7.5-7.5-.1-4.1 3.3-7.5 7.5-7.5z"></path><path d="M61.9 47.1h-.5c-4.7 0-8.5-3.8-8.5-8.5s3.8-8.5 8.5-8.5h.5c4.7 0 8.5 3.8 8.5 8.5s-3.8 8.5-8.5 8.5zM61.5 32c-3.6 0-6.5 2.9-6.5 6.5s2.9 6.5 6.5 6.5h.5c3.6 0 6.5-2.9 6.5-6.5S65.6 32 62 32h-.5z"></path><path fill="#ff484a" d="M38.5 31h.5c4.2 0 7.5 3.4 7.5 7.5 0 4.2-3.4 7.5-7.5 7.5h-.5c-4.2 0-7.5-3.4-7.5-7.5-.1-4.1 3.3-7.5 7.5-7.5z"></path><path d="M38.9 47.1h-.5c-4.7 0-8.5-3.8-8.5-8.5s3.8-8.5 8.5-8.5h.5c4.7 0 8.5 3.8 8.5 8.5s-3.8 8.5-8.5 8.5zM38.5 32c-3.6 0-6.5 2.9-6.5 6.5s2.9 6.5 6.5 6.5h.5c3.6 0 6.5-2.9 6.5-6.5S42.6 32 39 32h-.5z"></path><path fill="#66ffc8" d="M46.5 38.5c2.5-1 5-1 7.5 0"></path><path d="M53.9 39.5c-.1 0-.2 0-.4-.1-2.3-.9-4.5-.9-6.8 0-.5.2-1.1-.1-1.3-.6-.2-.5.1-1.1.6-1.3 2.7-1 5.5-1 8.2 0 .5.2.8.8.6 1.3-.1.5-.5.7-.9.7z"></path><path fill="#ababb2" d="M62.7 9.8c-.6 0-1.2.1-1.8.2-1.3-2.6-3.4-3.8-7-4.7-4.6-.3-8.9-.4-12.4 0-8.4.9-15 7.1-15 15.4v15l4.3-4.3c1.8-2.1 3.4-4.8 4.8-7.3l2.1-.2c8.1-.7 16-3.3 23-7.4.1 0 .2-.1.2-.1s3.9 9.4 8.6 15l4.3 4.3V20.9c0-6.1-5-11.1-11.1-11.1z"></path><path d="M73.8 36.8c-.3 0-.5-.1-.7-.3l-4.3-4.3c-3.9-4.7-7.2-11.7-8.4-14.3-6.9 4-14.7 6.4-22.7 7.1l-1.5.1c-1.6 2.8-3.2 5.2-4.7 7l-4.4 4.4c-.3.3-.7.4-1.1.2-.4-.2-.6-.5-.6-.9v-15c0-8.5 6.7-15.4 15.9-16.4 3.2-.4 7.2-.4 12.6 0h.2c3.2.8 5.7 1.9 7.3 4.6.4 0 .8-.1 1.3-.1 6.7 0 12.1 5.4 12.1 12.1v14.9c0 .4-.2.8-.6.9-.2-.1-.3 0-.4 0zM60.9 15.4h.3c.3.1.5.3.6.6 0 .1 3.9 9.3 8.4 14.8l2.5 2.5V20.9c0-5.6-4.5-10.1-10.1-10.1-.6 0-1.1 0-1.7.1-.4.1-.9-.1-1.1-.5-1.1-2.2-2.8-3.3-6.2-4.1-5.2-.4-9-.4-12.1 0-8.3.9-14.2 6.9-14.2 14.4v12.6l2.6-2.6c1.4-1.7 3-4.1 4.6-7.1.2-.3.5-.5.8-.5l2.1-.2c7.9-.7 15.7-3.2 22.6-7.3l.2-.1c.3 0 .5-.1.7-.1z"></path><path fill="#ff484a" d="M107.6 87.1s-8.8-1.7-18-12.7c0 0 4.5-1.2 13.4.1 0 0-8.3-3.5-15.3-3.2 0 0-6.7-13.4-5.3-27.7 0 0 6.2 1.3 7.6 2 0 0-5.4-3.5-7.7-4L83 33s10.8 2.7 17.3 11.6c0 0 7.4 9.7 9.2 19.1.1 0 5.1 19.9-1.9 23.4z"></path><path d="M107.6 88.1h-.2c-.4-.1-9.2-1.9-18.5-13-.2-.3-.3-.6-.2-.9.1-.3.4-.6.7-.7.1 0 1.8-.5 4.9-.5-2.1-.4-4.4-.7-6.5-.6-.4 0-.8-.2-.9-.6-.3-.6-6.8-13.8-5.4-28.2 0-.3.2-.5.4-.7.1-.1.2-.1.3-.1-.5-.1-.8-.6-.7-1l.7-8.6c0-.3.2-.6.4-.7.2-.2.5-.2.8-.2.5.1 11.3 2.9 17.9 12 .3.4 7.5 9.9 9.3 19.5.5 2.1 5 20.7-2.5 24.5-.2-.2-.4-.2-.5-.2zm-16-13c7.4 8.3 14.3 10.5 15.9 11 4.8-3 2.5-16.9 1.1-22.1-1.7-9.2-8.9-18.7-9-18.7-5-6.9-12.8-9.9-15.6-10.9l-.6 6.6c2.5.9 6.6 3.5 7.1 3.8.4.3.6.9.3 1.3-.3.5-.8.6-1.3.4-.8-.4-3.9-1.2-6.3-1.7-.7 11.8 3.9 22.9 5.1 25.5h.2c7 0 14.6 3.2 14.9 3.3.5.2.7.7.6 1.2-.1.5-.6.8-1.1.7-5.6-.8-9.3-.6-11.3-.4z"></path><path fill="#e96d64" d="m107.6 87.1 3 11.3"></path><path d="M110.6 99.4c-.4 0-.8-.3-1-.7l-3.1-11.2c-.1-.5.2-1.1.7-1.2.5-.1 1.1.2 1.2.7l3.1 11.2c.1.5-.2 1.1-.7 1.2h-.2z"></path><path fill="#ffcc38" d="M123.3 105.7H94.7c-2.3 0-4.4 1.9-4.6 4.3L88 128.2c0 2.6 2.1 4.7 4.7 4.7h30.6v-27.2z"></path><path d="M128.3 134H92.7c-3.2 0-5.7-2.6-5.7-5.7v-.1l2.1-18.2c.3-2.9 2.7-5.2 5.6-5.2h31.6c2.9 0 5.3 2.3 5.6 5.2l2.1 18.2v.1c0 3.1-2.6 5.7-5.7 5.7zM89 128.3c0 2 1.7 3.7 3.7 3.7h35.5c2 0 3.7-1.6 3.7-3.7l-2.1-18.2c-.2-1.9-1.8-3.4-3.6-3.4H94.7c-1.8 0-3.4 1.5-3.6 3.4L89 128.3z"></path><path fill="#66ffc8" d="M102.1 100.1h11.4v5.6h-11.4z"></path><path d="M118.8 106.7h-16.7c-.6 0-1-.4-1-1v-5.6c0-.6.4-1 1-1h16.7c.6 0 1 .4 1 1v5.6c0 .6-.4 1-1 1zm-15.7-2h14.7v-3.6h-14.7v3.6z"></path><path fill="#ff7e42" d="M99.1 95.6h14.4v4.5H99.1z"></path><path d="M121.9 101.2H99.1c-.6 0-1-.4-1-1v-4.5c0-.6.4-1 1-1h22.8c.6 0 1 .4 1 1v4.5c0 .5-.5 1-1 1zm-21.8-2h20.8v-2.5h-20.8v2.5z"></path><path fill="#ff484a" d="m67.8 77.9-2.6 15.9-10.7-8.6 6.4-8.6 6.9 1.3z"></path><path d="M65.2 94.8c-.2 0-.4-.1-.6-.2L53.8 86c-.4-.3-.5-.9-.2-1.4L60 76c.2-.3.6-.5 1-.4l6.9 1.3c.5.1.9.6.8 1.1l-2.6 15.9c-.1.4-.3.6-.6.8-.1.1-.2.1-.3.1zM55.8 85l8.7 6.9 2.2-13.2-5.4-1-5.5 7.3z"></path><path fill="#ff484a" d="M45.8 85.2h8.1v47.3h-8.1z"></path><path d="M53.9 133.5h-8.1c-.6 0-1-.4-1-1V85.2c0-.6.4-1 1-1h8.1c.6 0 1 .4 1 1v47.3c0 .5-.4 1-1 1zm-7.1-2h6.1V86.2h-6.1v45.3zM21.9 127.8H10.1c-.6 0-1-.4-1-1s.4-1 1-1h11.7c.6 0 1 .4 1 1s-.4 1-.9 1zM27.5 127.8h-1.6c-.6 0-1-.4-1-1s.4-1 1-1h1.6c.6 0 1 .4 1 1s-.5 1-1 1zM33.2 127.8h-1.6c-.6 0-1-.4-1-1s.4-1 1-1h1.6c.6 0 1 .4 1 1s-.5 1-1 1zM105.7 128.7H94c-.6 0-1-.4-1-1s.4-1 1-1h11.8c.6 0 1 .4 1 1s-.5 1-1.1 1zM111.3 128.7h-1.6c-.6 0-1-.4-1-1s.4-1 1-1h1.6c.6 0 1 .4 1 1s-.4 1-1 1zM117 128.7h-1.6c-.6 0-1-.4-1-1s.4-1 1-1h1.6c.6 0 1 .4 1 1s-.4 1-1 1z"></path></svg>